# xmcd CD database file
#
# Track frame offsets:
#	183
#	6408
#	12258
#	19458
#	29058
#	37383
#	43758
#	50283
#	57033
#	62058
#	73083
#	80058
#	86583
#	90183
#	94908
#	102633
#	109458
#	115908
#	120858
#	125433
#	132783
#	140583
#	147858
#	152283
#	156708
#	166458
#	175983
#	183183
#	191433
#	199083
#	207633
#	210858
#	217533
#	232383
#	241383
#	247908
#	253758
#	259608
#	265833
#	272358
#	277983
#	283083
#	289833
#	296058
#	300033
#
# Disc length: 4087 seconds
#
# Revision: 0
# Processed by: cddbd v1.5.1PL0 Copyright (c) Steve Scherf et al.
# Submitted via: CDex 1.51
#
DISCID=9b0ff52d
DTITLE=Sonoton Authentic Sries - SAS 052 - Authentic  India 2
DYEAR=1995
DGENRE=Contentum
TTITLE0=Temple atmosphere
TTITLE1=River side love
TTITLE2=Veena and flute
TTITLE3=Hill side tribes
TTITLE4=Praying song
TTITLE5=Waiting and longing
TTITLE6=Village atmosphere
TTITLE7=Love message
TTITLE8=Pathos theme
TTITLE9=Solo Pathos
TTITLE10=Village chase
TTITLE11=Conversation
TTITLE12=Happy meeting
TTITLE13=Dramatic meeting
TTITLE14=Tribe
TTITLE15=Telling happy news
TTITLE16=Question and answer
TTITLE17=Divine atmosphere
TTITLE18=Village drama
TTITLE19=Introducing the hero
TTITLE20=Pathos
TTITLE21=Classical love theme
TTITLE22=(A) Folk love theme
TTITLE23=(B) Folk love theme
TTITLE24=Tape duet
TTITLE25=Sea side group song
TTITLE26=Pathos veena
TTITLE27=Chassing rhythm
TTITLE28=Home atmosphere
TTITLE29=The pathos begins
TTITLE30=Ending in happiness
TTITLE31=Temple
TTITLE32=Waiting and remembering
TTITLE33=Temple love
TTITLE34=Temple love mood
TTITLE35=Bereavement pathos
TTITLE36=Child theme
TTITLE37=Following pathos
TTITLE38=(A) Brother and sister
TTITLE39=(B) Brother and sister
TTITLE40=Indian tiger dance
TTITLE41=Praying in a sad mood
TTITLE42=Spring season
TTITLE43=Thinking of the past
TTITLE44=Final happy ending
EXTD=YEAR: 1995
EXTT0=
EXTT1=
EXTT2=
EXTT3=
EXTT4=
EXTT5=
EXTT6=
EXTT7=
EXTT8=
EXTT9=
EXTT10=
EXTT11=
EXTT12=
EXTT13=
EXTT14=
EXTT15=
EXTT16=
EXTT17=
EXTT18=
EXTT19=
EXTT20=
EXTT21=
EXTT22=
EXTT23=
EXTT24=
EXTT25=
EXTT26=
EXTT27=
EXTT28=
EXTT29=
EXTT30=
EXTT31=
EXTT32=
EXTT33=
EXTT34=
EXTT35=
EXTT36=
EXTT37=
EXTT38=
EXTT39=
EXTT40=
EXTT41=
EXTT42=
EXTT43=
EXTT44=
PLAYORDER=
